<svg width="24" height="24" viewBox="0 0 24 24" fill="none" xmlns="http://www.w3.org/2000/svg">
  <!-- Office icon — active state: filled blue building -->
  <path d="M3 21V5a1 1 0 0 1 1-1h7a1 1 0 0 1 1 1v16" fill="#3B82F6"/>
  <path d="M12 21V10a1 1 0 0 1 1-1h7a1 1 0 0 1 1 1v11" fill="#3B82F6"/>
  <path d="M2 21h20" stroke="#3B82F6" stroke-width="1.5" stroke-linecap="round"/>
  <!-- Windows -->
  <rect x="5.5" y="6.5" width="2" height="2" rx="0.3" fill="#0F1724"/>
  <rect x="8.5" y="6.5" width="2" height="2" rx="0.3" fill="#0F1724"/>
  <rect x="5.5" y="10.5" width="2" height="2" rx="0.3" fill="#0F1724"/>
  <rect x="8.5" y="10.5" width="2" height="2" rx="0.3" fill="#0F1724"/>
  <rect x="5.5" y="14.5" width="2" height="2" rx="0.3" fill="#0F1724"/>
  <rect x="8.5" y="14.5" width="2" height="2" rx="0.3" fill="#0F1724"/>
  <rect x="14.5" y="11.5" width="2" height="2" rx="0.3" fill="#0F1724"/>
  <rect x="17.5" y="11.5" width="2" height="2" rx="0.3" fill="#0F1724"/>
  <rect x="14.5" y="15.5" width="2" height="2" rx="0.3" fill="#0F1724"/>
  <rect x="17.5" y="15.5" width="2" height="2" rx="0.3" fill="#0F1724"/>
</svg>
