<svg width="32" height="32" viewBox="0 0 32 32" fill="none" xmlns="http://www.w3.org/2000/svg">
  <!-- Arinova logo mark — white, transparent background -->
  <!-- Speech bubble outline -->
  <path d="M5 8a3 3 0 0 1 3-3h16a3 3 0 0 1 3 3v10a3 3 0 0 1-3 3h-3l-5 5-2-5H8a3 3 0 0 1-3-3V8Z" fill="white"/>
  <!-- Triangle network inside (3 nodes + 3 edges) — knocked out in dark -->
  <!-- Edges -->
  <line x1="12" y1="18" x2="20" y2="18" stroke="#2563EB" stroke-width="1.8" stroke-linecap="round"/>
  <line x1="12" y1="18" x2="16" y2="10" stroke="#2563EB" stroke-width="1.8" stroke-linecap="round"/>
  <line x1="20" y1="18" x2="16" y2="10" stroke="#2563EB" stroke-width="1.8" stroke-linecap="round"/>
  <!-- Nodes -->
  <circle cx="16" cy="10" r="2.2" fill="#2563EB"/>
  <circle cx="12" cy="18" r="2.2" fill="#2563EB"/>
  <circle cx="20" cy="18" r="2.2" fill="#2563EB"/>
</svg>
